<?xml version="1.0" encoding="UTF-8"?>
<svg width="137px" height="158px" viewBox="0 0 137 158" version="1.1" xmlns="http://www.w3.org/2000/svg" xmlns:xlink="http://www.w3.org/1999/xlink">
    <!-- Generator: Sketch 51.1 (57501) - http://www.bohemiancoding.com/sketch -->
    <title>Fill 1</title>
    <desc>Created with Sketch.</desc>
    <defs></defs>
    <g id="HOMEPAGE" stroke="none" stroke-width="1" fill="none" fill-rule="evenodd">
        <g id="HOMEPAGE---no-leaves" transform="translate(-50.000000, 0.000000)" fill="#FFFFFF">
            <g id="Header" transform="translate(50.000000, 0.000000)">
                <g id="Logo">
                    <path d="M70.9614313,19.3956258 C70.9614313,19.3956258 70.9604556,19.3936679 70.9594798,19.3936679 L70.9594798,19.3956258 C70.2373949,19.4054151 69.7494996,19.8772615 69.4626173,20.5214002 C69.789507,20.5125898 70.2471528,20.4391698 70.9594798,21.1645601 L70.9594798,21.1792441 C71.6083804,20.286456 72.2367894,20.6153779 72.4651244,20.643767 C72.178242,19.9976704 71.5722762,19.5277819 70.9614313,19.3956258 Z M85.0762399,33.3248823 C81.495089,31.9152169 79.3337132,31.3670136 75.5164211,30.8922305 C79.3590838,30.2999752 81.8288093,30.7179802 85.489975,32.1198141 C89.4116767,33.6185626 91.1271163,35.3013507 94.2223235,38.427088 C90.890975,36.5289343 88.8740162,34.8216729 85.0762399,33.3248823 Z M70.469633,26.3460595 C73.8214731,25.0000248 75.0421869,23.2594796 75.0421869,23.2594796 C77.1518458,21.2830112 77.0142594,15.4289839 77.9002771,14.0056134 C78.5901609,12.8984387 80.1670382,10.5245229 83.4008077,11.1970508 C88.6417781,13.0766047 85.098683,18.6291202 82.4464847,21.8547088 L72.9130122,27.3719827 L81.1613687,23.3289839 L81.1613687,23.3309418 L81.2921246,23.2653532 L83.5969416,22.1356629 L83.59499,22.1337051 L83.7364796,22.0632218 C87.3995969,20.0515118 92.0346014,18.0388228 92.0346014,18.0388228 C92.1790184,17.9644238 93.6905177,22.4283643 87.8952984,25.1586121 C85.2382211,26.4087113 82.7226334,25.7244362 80.2870604,26.0660843 C77.7636664,26.4243742 75.7125549,28.8756258 72.8739806,28.9558984 C71.8776986,28.9823296 71.3293043,28.5349566 70.469633,28.0053532 L70.469633,26.3460595 Z M68.4995121,28.0151425 C67.6388649,28.5613879 67.0738823,28.9823296 66.0766245,28.9558984 C63.2370743,28.8756258 61.1859629,26.4243742 58.6645204,26.0660843 C56.2289475,25.7244362 53.7133598,26.4087113 51.0562825,25.1586121 C45.2610631,22.4303222 46.7725625,17.9644238 46.9160037,18.0388228 C46.9160037,18.0388228 51.5636935,20.0573854 55.2277865,22.0720322 L57.7638658,23.3015737 L65.7780326,27.2133953 L56.4914351,21.837088 C53.8392367,18.6095415 50.3176091,13.0746468 55.5497974,11.1970508 C58.7835668,10.5245229 60.3604442,12.8984387 61.050328,14.0046344 C61.9353699,15.4289839 61.799735,21.2830112 63.9074424,23.2594796 C63.9074424,23.2594796 65.1466962,25.0000248 68.4975605,26.3460595 L68.4995121,28.0151425 Z M53.875341,33.3248823 C50.0756131,34.8216729 48.0586543,36.5289343 44.7282815,38.427088 C47.822513,35.3013507 49.5399041,33.6185626 53.4606301,32.1178563 C57.1227715,30.7179802 59.5915213,30.2999752 63.434184,30.8922305 C59.6159161,31.3650558 57.4555161,31.9152169 53.875341,33.3248823 Z M69.4840846,21.0108674 C68.1638402,21.3397893 68.3404583,21.7264684 68.1823802,21.8165304 C68.1716465,21.8233829 68.1579855,21.8233829 68.146276,21.8292565 C67.7637661,21.4073358 67.1919529,21.0989715 66.674784,21.0823296 C66.6640503,21.1606444 66.758702,21.4415985 66.8699421,21.7186369 C67.0280201,22.1924411 67.2797741,22.6456877 68.4204731,24.2462454 C68.6897912,24.6270508 68.5756238,25.0147088 68.5970911,25.5139653 C66.8631116,22.8620322 65.6248335,20.8444486 64.9115307,19.5023296 C62.3491051,14.6781413 65.8170642,10.9993061 69.4840846,9.10017348 L69.4840846,9.10115242 C73.0330344,10.8416976 76.62004,14.6800991 74.0566386,19.5023296 C73.3433358,20.8444486 72.1060335,22.8639901 70.3720539,25.5139653 C70.3935213,25.0147088 70.2793538,24.6270508 70.5476962,24.2482032 C71.6835163,22.6535192 71.9381976,22.1963569 72.0952998,21.7264684 C72.2075157,21.4474721 72.3050948,21.1626022 72.2914337,21.0823296 C71.7508458,21.1009294 71.2151369,21.4053779 70.8667797,21.8468773 C70.8394575,21.837088 70.8131112,21.8312144 70.7848133,21.8165304 C70.6267352,21.7284263 70.7057743,21.240917 69.4840846,21.0128253 L69.4840846,21.0108674 Z M69.4840846,41.5322677 L78.0193235,41.5322677 L78.0183477,41.0565056 C74.9582689,40.2361586 71.1692747,39.6840397 70.4579235,38.1216605 C70.4540203,38.0913135 70.4501172,38.0619455 70.4491414,38.0315985 C70.4315771,36.4104833 70.4296256,35.9552788 70.5291562,33.5040273 C70.5711152,32.4565675 71.5293414,31.8907435 72.6183235,31.9612268 C75.0821943,32.1198141 76.3077871,34.8441884 78.7482389,37.2592193 C81.8639378,40.3448203 90.4177167,42.4025403 97.9098355,41.6105824 C97.0413821,36.3507683 93.5665924,33.0664436 88.4856516,30.6151921 C83.0827,28.0092689 78.6974978,28.3607063 73.1110977,30.496741 C72.2826516,30.8139157 71.6913226,30.854052 70.5476962,30.5770136 C70.5096404,29.9035068 70.5096404,29.7263197 70.5291562,28.8374473 C70.5418415,28.2422553 71.0619378,29.9436431 74.0185828,29.4297026 C76.6239432,28.976456 77.6602326,27.2956258 80.247053,26.7395911 C82.454291,26.2657869 87.3439768,27.4316976 90.732897,24.1503098 C93.8124915,21.1684758 93.098213,18.0388228 92.1126646,17.1695291 L83.5188783,21.4014622 C87.6972129,17.3281165 87.9557974,11.8588104 83.9521293,10.6831103 C81.653167,10.0086245 79.6352324,10.7212887 78.0964109,12.5421066 C76.3643829,14.5998265 76.7390865,17.842057 75.7730539,20.8865428 C75.0665817,23.1106815 72.8739806,24.6436927 71.21904,25.2770632 C72.5988077,23.0225774 73.6126539,21.5943123 74.3727947,20.2521933 C77.8017222,14.2033581 72.5988077,9.89213135 69.4840846,8.46680297 C66.3703374,9.89017348 61.1654713,14.2014002 64.5963504,20.2541512 C65.3555154,21.5943123 66.3703374,23.0206196 67.7501051,25.2770632 C66.0941887,24.6417348 63.9006118,23.1106815 63.1951153,20.8845849 C62.2310344,17.8400991 62.6047621,14.5978686 60.8698068,12.5411276 C59.3339126,10.7212887 57.3140265,10.0076456 55.0150642,10.6821314 C51.0133477,11.8568525 51.2699806,17.3281165 55.4492909,21.3995043 L46.8145215,17.1313507 C45.8289731,17.9986865 45.154702,21.166518 48.2342965,24.1503098 C51.6251683,27.4316976 56.5129025,26.2657869 58.722092,26.7395911 C61.3069609,27.2956258 62.3452019,28.9744981 64.9505623,29.4297026 C67.9062315,29.9416853 68.4263278,28.2402974 68.4399889,28.8354895 C68.4595047,29.7263197 68.4595047,29.9035068 68.4204731,30.5770136 C67.2768467,30.8520942 66.6845419,30.8119579 65.8580474,30.496741 C60.2696957,28.3607063 55.8864451,28.0092689 50.4825177,30.6151921 C45.4006011,33.0664436 41.9258114,36.3507683 41.0593095,41.6105824 C48.5494768,42.4025403 57.1042315,40.3448203 60.2189546,37.2611772 C62.6594064,34.8422305 63.885975,32.1178563 66.3498458,31.9592689 C67.4388279,31.8907435 68.3970541,32.4585254 68.4399889,33.5020694 C68.5375679,35.9552788 68.5365921,36.4085254 68.5180521,38.0315985 C68.5180521,38.0599876 68.5131732,38.0873978 68.5102458,38.1157869 C67.8008462,39.678166 64.0108761,40.230285 60.9488458,41.0525898 L60.9488458,41.5283519 L69.4840846,41.5263941 L69.4840846,41.5322677 Z M67.820362,18.6575093 C67.5373827,18.0260967 67.0738823,17.7030483 66.372289,17.6756382 C66.3557005,17.7774473 66.3156931,18.2404833 66.3205721,18.60171 C66.325451,18.9727261 66.4005869,19.5522553 66.4005869,19.5522553 C66.8738453,19.034399 67.2075656,18.7554027 67.820362,18.6575093 Z M71.1536621,18.7338662 C71.7654827,18.8317596 72.1011546,19.1127138 72.5734371,19.63057 C72.5734371,19.63057 72.648573,19.0529988 72.6524762,18.6819827 C72.6573551,18.3207559 72.6173477,17.8557621 72.6027108,17.7539529 C71.8991659,17.7813631 71.4356655,18.1044114 71.1536621,18.7338662 Z M69.4665204,20.5214002 C69.179638,19.8772615 68.6927186,19.4054151 67.9686821,19.3956258 L67.9686821,19.3936679 C67.9677063,19.3936679 67.9677063,19.3956258 67.9677063,19.3956258 L67.9657547,19.3956258 C67.3558857,19.5277819 66.7508957,19.9996283 66.4620617,20.6418092 C66.6903967,20.6153779 67.3197815,20.286456 67.9686821,21.1792441 L67.9686821,21.1626022 C68.6819849,20.4411276 69.1396306,20.5125898 69.4665204,20.5214002 Z M69.4694478,17.4612515 L69.4694478,17.4592937 C68.751266,17.4710409 68.1111475,17.8782776 67.8262167,18.6369517 C68.1501791,18.6232466 68.7600481,18.6898141 69.4694478,19.5405081 L69.4694478,19.5581289 C70.1105421,18.5106691 70.9233755,18.6672986 71.1497589,18.6996035 C70.8638523,17.9438662 69.9875925,17.4612515 69.4694478,17.4612515 Z M70.9711893,15.5249195 L70.9711893,15.5229616 C70.2520317,15.5347088 69.7699912,16.0907435 69.4840846,16.8513755 C69.8099986,16.8386493 70.2617896,16.7564188 70.9702135,17.6051549 L70.9702135,17.6237546 C71.6113078,16.5723792 72.2348379,16.962974 72.4612212,16.9933209 C72.1753146,16.2346468 71.5752035,15.6776332 70.9711893,15.5249195 Z M67.9979558,15.5347088 L67.9960042,15.5347088 L67.9960042,15.5366667 C67.39199,15.6874226 66.7918789,16.2454151 66.5059723,17.0031103 C66.7323556,16.9717844 67.3558857,16.5841264 67.9979558,17.6315861 L67.9979558,17.6149442 C68.7063797,16.7652292 69.1591464,16.8494176 69.4840846,16.8592069 C69.198178,16.1024907 68.7161376,15.5454771 67.9979558,15.5347088 Z M69.4938425,13.3790954 L69.4938425,13.3771375 C69.4938425,13.3771375 69.4928668,13.3781165 69.491891,13.3781165 C69.491891,13.3781165 69.491891,13.3771375 69.4909152,13.3771375 L69.4909152,13.3790954 C68.6800333,13.5582404 67.875982,14.205316 67.4924964,15.0873358 C67.796943,15.0511152 68.6322196,14.5998265 69.4938425,15.8195787 L69.4938425,15.7980421 C70.3554655,14.5822057 71.18196,15.0579678 71.484455,15.0961462 C71.102921,14.2131475 70.3135065,13.5386617 69.4938425,13.3790954 Z M95.7689513,121.491623 L97.5370836,121.491623 L100.320038,131.105737 C100.010712,128.10824 99.8731259,125.213532 99.8731259,122.404969 L99.8731259,121.491623 L101.522212,121.491623 L101.522212,133.948563 L99.9765597,133.948563 L96.9369725,123.351599 C97.227758,126.815068 97.3829087,130.347063 97.4170614,133.948563 L95.7689513,133.948563 L95.7689513,121.491623 Z M84.5376035,121.491623 L89.4487568,121.491623 L89.4487568,123.162664 L86.3750169,123.162664 L86.3750169,126.609492 L88.7793645,126.609492 L88.7793645,128.314796 L86.3750169,128.314796 L86.3750169,132.277522 L89.7405181,132.277522 L89.7405181,133.948563 L84.5376035,133.948563 L84.5376035,121.491623 Z M74.2498451,132.328426 C75.4344547,132.328426 75.8296498,131.673519 75.8296498,130.106245 L75.8296498,124.919851 C75.8296498,123.542491 75.4861716,123.076518 74.2674093,123.076518 L73.7346277,123.076518 L73.7346277,132.328426 L74.2498451,132.328426 Z M71.8972144,121.491623 L73.85465,121.491623 C76.6717569,121.491623 77.7021916,122.249318 77.7021916,124.989356 L77.7021916,130.553618 C77.7021916,132.897187 76.7742149,133.948563 74.5933233,133.948563 L71.8972144,133.948563 L71.8972144,121.491623 Z M61.8504761,127.10777 C63.1209553,127.10777 63.499562,126.591871 63.499562,125.023618 C63.499562,123.628637 63.1385195,123.076518 62.004651,123.076518 L61.4045399,123.076518 L61.4045399,127.10777 L61.8504761,127.10777 Z M59.5661508,121.491623 L61.5928675,121.491623 C64.4089986,121.491623 65.371128,122.301202 65.371128,125.127385 C65.371128,126.764164 64.9417802,127.780297 63.927934,128.314796 L65.5594556,133.948563 L63.6703253,133.948563 L62.2115186,128.710285 L61.4045399,128.710285 L61.4045399,133.948563 L59.5661508,133.948563 L59.5661508,121.491623 Z M51.1177572,129.779281 L50.429825,122.54202 L50.3449312,122.54202 L49.6228463,129.779281 L51.1177572,129.779281 Z M49.1769101,121.491623 L51.5636935,121.491623 L53.470388,133.948563 L51.5978461,133.948563 L51.2885206,131.432701 L49.4511072,131.432701 L49.1593459,133.948563 L47.3560852,133.948563 L49.1769101,121.491623 Z M40.400651,133.948563 L39.9547148,133.035217 C39.4560859,133.723408 38.7515652,134.085613 37.9270223,134.085613 C36.0554562,134.085613 35.3001944,132.67399 35.3001944,129.745019 L35.3001944,125.695167 C35.3001944,122.68005 36.0896089,121.249827 38.2880647,121.249827 C40.2289119,121.249827 41.2769108,122.559641 41.2769108,125.075502 L41.2769108,125.522875 L39.404369,125.522875 L39.404369,124.713296 C39.404369,123.456344 39.0950434,122.834721 38.2880647,122.834721 C37.481086,122.834721 37.1717605,123.456344 37.1717605,124.713296 L37.1717605,130.656406 C37.1717605,131.914337 37.481086,132.534981 38.2880647,132.534981 C39.0950434,132.534981 39.404369,131.914337 39.404369,130.656406 L39.404369,129.21052 L38.4256512,129.21052 L38.4256512,127.659888 L41.2769108,127.659888 L41.2769108,133.948563 L40.400651,133.948563 Z M112.639392,96.543482 L114.477781,96.543482 L114.477781,107.276518 L117.843282,107.276518 L117.843282,108.999442 L112.639392,108.999442 L112.639392,96.543482 Z M104.190023,104.830161 L103.503066,97.5948575 L103.417197,97.5948575 L102.696088,104.830161 L104.190023,104.830161 Z M102.249176,96.543482 L104.636935,96.543482 L106.542653,108.999442 L104.671087,108.999442 L104.361762,106.48456 L102.524348,106.48456 L102.232587,108.999442 L100.429326,108.999442 L102.249176,96.543482 Z M91.7389369,109.241239 C89.5414568,109.241239 88.7510666,107.811016 88.7510666,104.795898 L88.7510666,100.748005 C88.7510666,97.7319083 89.5414568,96.3026642 91.7389369,96.3026642 C93.679784,96.3026642 94.727783,97.6114994 94.727783,100.127361 L94.727783,100.748005 L92.8552411,100.748005 L92.8552411,99.7651549 C92.8552411,98.5072243 92.5468914,97.8875589 91.7389369,97.8875589 C90.9319582,97.8875589 90.6226326,98.5072243 90.6226326,99.7651549 L90.6226326,105.77777 C90.6226326,107.0357 90.9319582,107.655366 91.7389369,107.655366 C92.5468914,107.655366 92.8552411,107.0357 92.8552411,105.77777 L92.8552411,104.589343 L94.727783,104.589343 L94.727783,105.38228 C94.727783,107.914783 93.6973483,109.241239 91.7389369,109.241239 Z M80.0616529,109.000421 L81.8990662,109.000421 L81.8990662,96.543482 L80.0616529,96.543482 L80.0616529,109.000421 Z M67.3188057,96.543482 L69.0869379,96.543482 L71.8698922,106.157596 C71.5605667,103.15912 71.4229802,100.264411 71.4229802,97.4568278 L71.4229802,96.543482 L73.072066,96.543482 L73.072066,108.999442 L71.526414,108.999442 L68.485851,98.4034572 C68.7776124,101.866927 68.9327631,105.398922 68.9669157,108.999442 L67.3188057,108.999442 L67.3188057,96.543482 Z M58.8860248,104.830161 L58.1990684,97.5948575 L58.1131988,97.5948575 L57.3920897,104.830161 L58.8860248,104.830161 Z M56.9461535,96.543482 L59.3329368,96.543482 L61.2396313,108.999442 L59.3670895,108.999442 L59.0577639,106.48456 L57.2203506,106.48456 L56.9285892,108.999442 L55.1253285,108.999442 L56.9461535,96.543482 Z M46.2124588,98.1283767 L44.5116561,98.1283767 L44.5116561,96.543482 L49.7496991,96.543482 L49.7496991,98.1283767 L48.0498722,98.1283767 L48.0498722,108.999442 L46.2124588,108.999442 L46.2124588,98.1283767 Z M34.4649178,105.77777 C34.4649178,107.0357 34.7742434,107.655366 35.5812221,107.655366 C36.3882008,107.655366 36.6975263,107.0357 36.6975263,105.77777 L36.6975263,99.7651549 C36.6975263,98.5072243 36.3882008,97.8875589 35.5812221,97.8875589 C34.7742434,97.8875589 34.4649178,98.5072243 34.4649178,99.7651549 L34.4649178,105.77777 Z M35.5812221,96.3026642 C37.7630895,96.3026642 38.5700682,97.7319083 38.5700682,100.748005 L38.5700682,104.795898 C38.5700682,107.811016 37.7796779,109.241239 35.5812221,109.241239 C33.3827663,109.241239 32.5933518,107.811016 32.5933518,104.795898 L32.5933518,100.748005 C32.5933518,97.7319083 33.3827663,96.3026642 35.5812221,96.3026642 Z M22.7007885,107.397906 C23.955655,107.397906 24.3323101,106.812503 24.3323101,105.261871 C24.3323101,103.865911 23.9205265,103.383296 22.7007885,103.383296 L22.0489605,103.383296 L22.0489605,107.397906 L22.7007885,107.397906 Z M22.5983305,101.746518 C23.8005043,101.746518 24.1615467,101.229641 24.1615467,99.8855638 C24.1615467,98.5767286 23.78294,98.1107559 22.6324831,98.1107559 L22.0489605,98.1107559 L22.0489605,101.746518 L22.5983305,101.746518 Z M20.2115471,96.543482 L22.5124609,96.543482 C25.0885476,96.543482 26.0331128,97.2835564 26.0331128,99.7817968 C26.0331128,101.246283 25.7071988,102.092082 24.7967863,102.487571 C25.7920925,102.883061 26.2048519,103.814027 26.2048519,105.398922 C26.2048519,107.949046 25.1578288,108.999442 22.5983305,108.999442 L20.2115471,108.999442 L20.2115471,96.543482 Z M103.104944,79.8820198 L102.417987,72.6457373 L102.332118,72.6457373 L101.611009,79.8820198 L103.104944,79.8820198 Z M101.165072,71.5953408 L103.551856,71.5953408 L105.45855,84.05228 L103.586008,84.05228 L103.276683,81.5364188 L101.43927,81.5364188 L101.147508,84.05228 L99.3442475,84.05228 L101.165072,71.5953408 Z M90.4313777,73.1802354 L88.730575,73.1802354 L88.730575,71.5953408 L93.968618,71.5953408 L93.968618,73.1802354 L92.2687911,73.1802354 L92.2687911,84.05228 L90.4313777,84.05228 L90.4313777,73.1802354 Z M76.8981403,71.5953408 L78.6672483,71.5953408 L81.4502026,81.2094548 C81.1408771,78.2109789 81.0032906,75.3162701 81.0032906,72.5086865 L81.0032906,71.5953408 L82.6514007,71.5953408 L82.6514007,84.05228 L81.1057486,84.05228 L78.0661614,73.4562949 C78.3588986,76.9187856 78.5130735,80.4517596 78.5472261,84.05228 L76.8981403,84.05228 L76.8981403,71.5953408 Z M68.4663352,79.8820198 L67.7793788,72.6457373 L67.6935092,72.6457373 L66.9724001,79.8820198 L68.4663352,79.8820198 Z M66.5254881,71.5953408 L68.9122715,71.5953408 L70.8189659,84.05228 L68.9473999,84.05228 L68.6380743,81.5364188 L66.7996852,81.5364188 L66.5088996,84.05228 L64.7046631,84.05228 L66.5254881,71.5953408 Z M54.3320109,71.5953408 L56.1694243,71.5953408 L56.1694243,82.3293556 L59.5359013,82.3293556 L59.5359013,84.05228 L54.3320109,84.05228 L54.3320109,71.5953408 Z M44.698032,73.1802354 L42.9972293,73.1802354 L42.9972293,71.5953408 L48.2352723,71.5953408 L48.2352723,73.1802354 L46.5354454,73.1802354 L46.5354454,84.05228 L44.698032,84.05228 L44.698032,73.1802354 Z M35.4582725,79.8820198 L34.771316,72.6457373 L34.6854465,72.6457373 L33.9643374,79.8820198 L35.4582725,79.8820198 Z M33.5174253,71.5953408 L35.9051845,71.5953408 L37.8109032,84.05228 L35.9393372,84.05228 L35.6300116,81.5364188 L33.7925982,81.5364188 L33.5008369,84.05228 L31.6975762,84.05228 L33.5174253,71.5953408 Z M0.77965655,157.215874 L136.219368,157.215874 L136.219368,51.6877323 L0.77965655,51.6877323 L0.77965655,157.215874 Z M0.780632341,50.9045849 L136.220343,50.9045849 L136.220343,0.78314746 L0.780632341,0.78314746 L0.780632341,50.9045849 Z M0,158 L137,158 L137,0 L0,0 L0,158 Z" id="Fill-1"></path>
                </g>
            </g>
        </g>
    </g>
</svg>