<?xml version="1.0" encoding="UTF-8"?>
<svg width="328px" height="74px" viewBox="0 0 328 74" version="1.1" xmlns="http://www.w3.org/2000/svg" xmlns:xlink="http://www.w3.org/1999/xlink">
    <!-- Generator: sketchtool 55.2 (78181) - https://sketchapp.com -->
    <title>49D4FC23-B5DE-494C-9293-4A33DC5A7460</title>
    <desc>Created with sketchtool.</desc>
    <defs>
        <polygon id="path-1" points="0 0.1 51.1219 0.1 51.1219 74 0 74"></polygon>
    </defs>
    <g id="Atomic_Doc" stroke="none" stroke-width="1" fill="none" fill-rule="evenodd">
        <g id="Logos" transform="translate(-407.000000, -1056.000000)">
            <g id="OER-logo-lockup-light" transform="translate(406.000000, 1056.000000)">
                <g id="Group-24" transform="translate(1.000000, -1.000000)">
                    <path d="M79.8446,32.3914 L79.8446,44.6894 C79.8446,47.8154 77.4956,49.6814 73.5626,49.6814 C69.6286,49.6814 67.2806,47.8154 67.2806,44.6894 L67.2806,32.3914 C67.2806,29.2664 69.6286,27.4004 73.5626,27.4004 C77.4956,27.4004 79.8446,29.2664 79.8446,32.3914 M73.5626,22.9364 C66.5106,22.9364 62.3006,26.3424 62.3006,32.0474 L62.3006,45.0344 C62.3006,50.7394 66.5106,54.1454 73.5626,54.1454 C80.6146,54.1454 84.8236,50.7394 84.8236,45.0344 L84.8236,32.0474 C84.8236,26.3424 80.6146,22.9364 73.5626,22.9364" id="Fill-1" fill="#FFFFFF"></path>
                    <polygon id="Fill-3" fill="#FFFFFF" points="92.0135 53.7156 109.8495 53.7156 109.8495 49.2516 96.9925 49.2516 96.9925 40.7726 107.6145 40.7726 107.6145 36.3516 96.9925 36.3516 96.9925 27.8296 109.8495 27.8296 109.8495 23.3656 92.0135 23.3656"></polygon>
                    <path d="M123.6522,27.8299 L128.3422,27.8299 C132.2522,27.8299 134.1522,29.3919 134.1522,32.6069 L134.1522,34.1549 C134.1522,37.3239 132.1972,38.9319 128.3422,38.9319 L123.6522,38.9319 L123.6522,27.8299 Z M139.1312,34.3699 L139.1312,32.2199 C139.1312,26.2629 135.6312,23.3659 128.4292,23.3659 L118.6722,23.3659 L118.6722,53.7159 L123.6522,53.7159 L123.6522,43.2239 L127.7162,43.2239 L134.5162,53.6589 L134.5532,53.7159 L140.3212,53.7159 L132.6382,42.7089 C136.9472,41.7629 139.1312,38.9579 139.1312,34.3699 L139.1312,34.3699 Z" id="Fill-5" fill="#FFFFFF"></path>
                    <path d="M159.5135,27.8299 L164.2905,27.8299 C168.1995,27.8299 170.0995,29.3919 170.0995,32.6069 L170.0995,34.5849 C170.0995,37.7549 168.1455,39.3619 164.2905,39.3619 L159.5135,39.3619 L159.5135,27.8299 Z M164.3765,23.3659 L154.5335,23.3659 L154.5335,53.7159 L159.5135,53.7159 L159.5135,43.8259 L164.3765,43.8259 C171.5775,43.8259 175.0785,40.9299 175.0785,34.9719 L175.0785,32.2199 C175.0785,26.2629 171.5775,23.3659 164.3765,23.3659 L164.3765,23.3659 Z" id="Fill-7" fill="#FFFFFF"></path>
                    <path d="M186.6463,27.8299 L191.3363,27.8299 C195.2463,27.8299 197.1463,29.3919 197.1463,32.6069 L197.1463,34.1549 C197.1463,37.3239 195.1913,38.9319 191.3363,38.9319 L186.6463,38.9319 L186.6463,27.8299 Z M202.1253,34.3699 L202.1253,32.2199 C202.1253,26.2629 198.6253,23.3659 191.4233,23.3659 L181.6663,23.3659 L181.6663,53.7159 L186.6463,53.7159 L186.6463,43.2239 L190.7103,43.2239 L197.5103,53.6589 L197.5473,53.7159 L203.3153,53.7159 L195.6323,42.7089 C199.9413,41.7629 202.1253,38.9579 202.1253,34.3699 L202.1253,34.3699 Z" id="Fill-9" fill="#FFFFFF"></path>
                    <path d="M225.1385,32.3914 L225.1385,44.6894 C225.1385,47.8154 222.7895,49.6814 218.8565,49.6814 C214.9225,49.6814 212.5745,47.8154 212.5745,44.6894 L212.5745,32.3914 C212.5745,29.2664 214.9225,27.4004 218.8565,27.4004 C222.7895,27.4004 225.1385,29.2664 225.1385,32.3914 M218.8565,22.9364 C211.8045,22.9364 207.5945,26.3424 207.5945,32.0474 L207.5945,45.0344 C207.5945,50.7394 211.8045,54.1454 218.8565,54.1454 C225.9085,54.1454 230.1175,50.7394 230.1175,45.0344 L230.1175,32.0474 C230.1175,26.3424 225.9085,22.9364 218.8565,22.9364" id="Fill-11" fill="#FFFFFF"></path>
                    <path d="M238.5965,27.8299 L246.1205,27.8299 L246.1205,44.5599 C246.1205,47.9869 244.4705,49.7249 241.2145,49.7249 C239.1175,49.7249 236.8085,49.0359 236.0185,48.7019 L235.8865,48.6459 L234.7465,52.7959 L234.8385,52.8419 C236.3965,53.6219 239.5275,54.1449 241.4735,54.1449 C247.7095,54.1449 251.1445,50.7259 251.1445,44.5169 L251.1445,23.3659 L238.5965,23.3659 L238.5965,27.8299 Z" id="Fill-13" fill="#FFFFFF"></path>
                    <polygon id="Fill-15" fill="#FFFFFF" points="258.8065 53.7156 276.6435 53.7156 276.6435 49.2516 263.7865 49.2516 263.7865 40.7726 274.4085 40.7726 274.4085 36.3516 263.7865 36.3516 263.7865 27.8296 276.6435 27.8296 276.6435 23.3656 258.8065 23.3656"></polygon>
                    <path d="M293.4608,27.4002 C295.6928,27.4002 298.4608,27.9742 300.3058,28.5122 L300.4298,28.5482 L301.5218,24.3642 L301.4218,24.3222 C299.4178,23.4762 295.4448,22.9362 293.5898,22.9362 C286.3628,22.9362 282.5428,25.9982 282.5428,31.7902 L282.5428,45.2922 C282.5428,51.0842 286.3628,54.1452 293.5898,54.1452 C295.4448,54.1452 299.4178,53.6052 301.4218,52.7592 L301.5218,52.7172 L300.4298,48.5322 L300.3058,48.5682 C298.4618,49.1062 295.6948,49.6812 293.4608,49.6812 C289.5868,49.6812 287.6448,48.1182 287.5228,44.9022 L287.5228,32.1812 C287.6428,29.0082 289.6408,27.4002 293.4608,27.4002" id="Fill-17" fill="#FFFFFF"></path>
                    <polygon id="Fill-19" fill="#FFFFFF" points="305.8914 23.366 305.8914 27.83 314.0614 27.83 314.0614 53.716 319.0834 53.716 319.0834 27.83 327.2964 27.83 327.2964 23.366"></polygon>
                    <g id="Group-23" transform="translate(0.000000, 0.900500)">
                        <mask id="mask-2" fill="white">
                            <use xlink:href="#path-1"></use>
                        </mask>
                        <g id="Clip-22"></g>
                        <path d="M25.5609,68.3161 L12.7279,55.4841 C10.8469,53.6021 9.8109,51.1001 9.8109,48.4391 C9.8109,45.7781 10.8469,43.2751 12.7279,41.3941 L14.1629,39.9601 L24.7169,50.5141 L43.3719,50.5051 L25.5609,68.3161 Z M7.7409,27.7181 L20.5849,27.7181 L14.1629,34.1401 L7.7409,27.7181 Z M25.5609,5.7841 L38.3939,18.6161 C40.2749,20.4981 41.3109,23.0001 41.3109,25.6611 C41.3109,28.3221 40.2749,30.8241 38.3939,32.7071 L36.9599,34.1401 L26.4129,23.5931 L7.7409,23.6031 L25.5609,5.7841 Z M25.5609,45.5391 L17.0729,37.0491 L25.5609,28.5611 L34.0499,37.0501 L25.5609,45.5391 Z M43.3899,46.3901 L30.5279,46.3901 L36.9589,39.9601 L43.3899,46.3901 Z M39.8689,37.0491 L41.0949,35.8241 C43.6719,33.2461 45.2899,29.8131 45.4169,26.1701 C45.5559,22.2201 44.0819,18.4851 41.3029,15.7071 L25.7929,0.1951 C25.6649,0.0671 25.4569,0.0671 25.3299,0.1951 L0.0959,25.4291 C-0.0321,25.5571 -0.0321,25.7641 0.0959,25.8921 L11.2539,37.0501 L10.0269,38.2771 C7.4489,40.8551 5.8319,44.2881 5.7049,47.9301 C5.5669,51.8791 7.0399,55.6151 9.8189,58.3931 L25.3299,73.9041 C25.4569,74.0321 25.6649,74.0321 25.7929,73.9041 L51.0259,48.6701 C51.1539,48.5431 51.1539,48.3361 51.0259,48.2081 L39.8689,37.0491 Z" id="Fill-21" fill="#FFFFFF" mask="url(#mask-2)"></path>
                    </g>
                </g>
            </g>
        </g>
    </g>
</svg>